<svg width="20" height="24" viewBox="0 0 20 24" fill="none" xmlns="http://www.w3.org/2000/svg">
<path d="M9.8125 13.5C8.875 13.5 8 13.3281 7.1875 12.9844C6.375 12.6094 5.65625 12.125 5.03125 11.5312C4.40625 10.9062 3.92188 10.1875 3.57812 9.375C3.23438 8.5625 3.04688 7.6875 3.01562 6.75C3.04688 5.8125 3.23438 4.9375 3.57812 4.125C3.92188 3.3125 4.40625 2.60938 5.03125 2.01562C5.65625 1.39063 6.375 0.90625 7.1875 0.5625C8 0.1875 8.875 0 9.8125 0C10.7188 0 11.5938 0.1875 12.4375 0.5625C13.2812 0.90625 14 1.39063 14.5938 2.01562C15.1875 2.60938 15.6562 3.3125 16 4.125C16.375 4.9375 16.5469 5.8125 16.5156 6.75C16.5469 7.6875 16.375 8.5625 16 9.375C15.6562 10.1875 15.1875 10.9062 14.5938 11.5312C14 12.125 13.2812 12.6094 12.4375 12.9844C11.5938 13.3281 10.7188 13.5 9.8125 13.5ZM9.76562 1.5C9.07812 1.5 8.40625 1.64062 7.75 1.92188C7.09375 2.20312 6.53125 2.57812 6.0625 3.04688C5.625 3.51562 5.25 4.07812 4.9375 4.73438C4.65625 5.35937 4.53125 6.03125 4.5625 6.75C4.53125 7.46875 4.65625 8.15625 4.9375 8.8125C5.25 9.4375 5.625 9.98438 6.0625 10.4531C6.53125 10.9219 7.09375 11.2969 7.75 11.5781C8.40625 11.8594 9.07812 12 9.76562 12C10.5469 12 11.2344 11.8594 11.8281 11.5781C12.4531 11.2969 13.0156 10.9219 13.5156 10.4531C14.0156 9.98438 14.3906 9.4375 14.6406 8.8125C14.8906 8.15625 15.0312 7.46875 15.0625 6.75C15.0312 6.03125 14.8906 5.35937 14.6406 4.73438C14.3906 4.07812 14.0156 3.51562 13.5156 3.04688C13.0156 2.57812 12.4531 2.20312 11.8281 1.92188C11.2344 1.64062 10.5469 1.5 9.76562 1.5ZM19.8438 24H0.109375L1.04688 15.9844L5.17188 14.2969L5.78125 15.7031L2.40625 17.0156L1.84375 22.5H18.1094L17.5469 17.0156L14.1719 15.7031L14.7812 14.2969L18.9062 15.9844L19.8438 24Z" fill="black"/>
</svg>
